<?xml version="1.0" standalone="no"?>
<!DOCTYPE svg PUBLIC "-//W3C//DTD SVG 20010904//EN"
 "http://www.w3.org/TR/2001/REC-SVG-20010904/DTD/svg10.dtd">
<svg version="1.0" xmlns="http://www.w3.org/2000/svg"
 width="2000.000000pt" height="2000.000000pt" viewBox="0 0 2000.000000 2000.000000"
 preserveAspectRatio="xMidYMid meet">

<g transform="translate(0.000000,2000.000000) scale(0.100000,-0.100000)"
fill="#D4AF37" stroke="none">
<path d="M9635 17039 c-31 -4 -23 -6 33 -7 39 0 72 1 72 3 0 7 -67 10 -105 4z"/>
<path d="M10433 17033 c9 -2 23 -2 30 0 6 3 -1 5 -18 5 -16 0 -22 -2 -12 -5z"/>
<path d="M10488 17033 c6 -2 18 -2 25 0 6 3 1 5 -13 5 -14 0 -19 -2 -12 -5z"/>
<path d="M10541 17030 c21 -12 257 -24 241 -12 -7 5 -43 10 -80 11 -37 2 -91
4 -121 6 -30 1 -48 -1 -40 -5z"/>
<path d="M9134 17023 c5 -9 0 -13 -16 -12 -33 0 -101 -11 -108 -18 -3 -3 31
-2 75 2 44 4 145 13 225 20 l145 13 -147 -1 c-82 -1 -148 -6 -148 -11 0 -5 -8
-2 -17 5 -11 9 -14 10 -9 2z"/>
<path d="M10800 17008 c0 -4 15 -8 33 -9 17 0 64 -3 104 -7 39 -4 70 -5 67 -1
-2 3 -36 10 -76 14 -110 12 -128 12 -128 3z"/>
<path d="M11028 16983 c6 -2 18 -2 25 0 6 3 1 5 -13 5 -14 0 -19 -2 -12 -5z"/>
<path d="M11145 16965 c23 -8 83 -10 79 -3 -3 4 -24 8 -47 7 -23 0 -37 -2 -32
-4z"/>
<path d="M11283 16943 c9 -2 23 -2 30 0 6 3 -1 5 -18 5 -16 0 -22 -2 -12 -5z"/>
<path d="M11390 16925 c73 -16 124 -19 76 -5 -15 5 -53 11 -85 14 l-56 5 65
-14z"/>
<path d="M11508 16903 c7 -3 16 -2 19 1 4 3 -2 6 -13 5 -11 0 -14 -3 -6 -6z"/>
<path d="M11553 16893 c9 -2 23 -2 30 0 6 3 -1 5 -18 5 -16 0 -22 -2 -12 -5z"/>
<path d="M11750 16850 c34 -11 60 -11 35 0 -11 5 -29 8 -40 8 -16 0 -15 -2 5
-8z"/>
<path d="M11818 16833 c7 -3 16 -2 19 1 4 3 -2 6 -13 5 -11 0 -14 -3 -6 -6z"/>
<path d="M11870 16820 c14 -4 34 -8 45 -8 16 0 15 2 -5 8 -14 4 -34 8 -45 8
-16 0 -15 -2 5 -8z"/>
<path d="M11948 16803 c7 -3 16 -2 19 1 4 3 -2 6 -13 5 -11 0 -14 -3 -6 -6z"/>
<path d="M11981 16795 c3 -2 29 -11 59 -19 30 -8 98 -27 150 -42 52 -14 106
-28 120 -30 52 -9 -47 25 -175 60 -122 34 -165 42 -154 31z"/>
<path d="M6855 16416 c-39 -19 -67 -35 -63 -35 3 -1 39 15 80 33 40 19 68 35
63 35 -6 1 -42 -14 -80 -33z"/>
<path d="M6753 16370 c-13 -5 -23 -12 -23 -15 0 -9 16 -5 36 10 22 16 19 18
-13 5z"/>
<path d="M6670 16330 c-19 -11 -30 -19 -25 -19 6 0 26 8 45 19 19 11 31 19 25
19 -5 0 -26 -8 -45 -19z"/>
<path d="M6605 16300 c-3 -5 -2 -10 4 -10 5 0 13 5 16 10 3 6 2 10 -4 10 -5 0
-13 -4 -16 -10z"/>
<path d="M13720 16086 c0 -11 330 -200 336 -193 7 6 -191 130 -251 157 -27 13
-58 27 -67 32 -10 5 -18 7 -18 4z"/>
<path d="M5854 15884 c-18 -14 -18 -15 4 -4 12 6 22 13 22 15 0 8 -5 6 -26
-11z"/>
<path d="M14071 15882 c0 -4 57 -44 127 -90 70 -45 169 -112 220 -148 50 -36
92 -63 92 -60 0 8 -178 138 -260 190 -41 26 -99 63 -127 82 -29 18 -53 30 -52
26z"/>
<path d="M5766 15835 c-11 -8 -15 -15 -9 -15 6 0 16 7 23 15 16 19 11 19 -14
0z"/>
<path d="M14815 15343 c6 -6 80 -70 165 -143 85 -73 186 -161 223 -197 38 -35
71 -62 74 -59 3 3 -14 22 -37 43 -24 21 -76 69 -116 106 -89 83 -205 180 -270
226 -27 19 -44 29 -39 24z"/>
<path d="M6525 14250 c-107 -10 -256 -27 -390 -45 -60 -8 -146 -19 -190 -25
-233 -29 -583 -110 -592 -137 -2 -5 29 -15 69 -23 244 -43 535 -193 718 -371
54 -53 183 -197 213 -238 12 -17 67 -87 123 -158 55 -70 124 -166 153 -213 28
-47 56 -92 61 -100 30 -49 132 -223 155 -265 15 -27 60 -108 100 -180 39 -71
98 -179 130 -240 32 -60 69 -128 81 -150 13 -22 32 -59 42 -81 11 -23 52 -96
91 -162 39 -66 71 -123 71 -126 0 -7 71 -128 86 -146 6 -8 34 -58 62 -110 87
-167 160 -304 186 -350 14 -25 29 -52 33 -60 4 -8 21 -40 38 -70 18 -30 64
-116 102 -190 95 -181 134 -253 144 -266 9 -11 43 -75 127 -238 25 -49 74
-139 109 -199 35 -60 63 -111 63 -113 0 -2 13 -26 30 -53 16 -28 54 -97 84
-155 30 -57 94 -170 141 -252 48 -81 119 -208 157 -283 39 -75 74 -140 78
-146 4 -5 24 -41 45 -80 227 -417 235 -439 264 -800 9 -102 8 -138 -8 -240
-30 -185 -49 -251 -108 -370 -30 -60 -60 -119 -66 -130 -88 -149 -274 -328
-486 -471 -117 -78 -158 -111 -150 -119 2 -1 56 9 119 24 202 48 264 63 328
77 56 12 243 73 312 102 14 6 72 30 130 52 151 59 374 181 512 279 69 49 203
168 273 244 124 132 254 336 345 537 72 161 105 272 130 435 6 39 14 90 19
114 26 132 8 403 -41 621 -50 224 -58 246 -158 465 -83 181 -268 443 -402 571
-124 118 -398 330 -398 307 0 -3 62 -69 138 -147 75 -78 169 -186 209 -241 71
-99 203 -316 203 -333 0 -4 13 -33 29 -63 38 -71 134 -300 155 -368 9 -29 16
-68 16 -87 0 -18 5 -36 10 -39 6 -3 10 -17 10 -31 0 -23 -2 -24 -47 -18 -49 5
-96 14 -203 37 -69 15 -267 80 -390 129 -328 130 -618 379 -760 653 -51 99
-128 313 -156 430 -51 219 -103 384 -150 475 -43 81 -46 87 -117 188 -32 46
-56 89 -53 97 2 7 22 19 43 25 73 22 167 22 353 1 316 -37 339 -40 377 -51 21
-6 70 -17 108 -24 39 -8 84 -19 100 -25 17 -6 66 -22 110 -35 142 -45 259 -89
308 -118 26 -15 50 -28 54 -28 12 0 131 -76 193 -123 108 -83 310 -294 310
-325 0 -14 49 -110 60 -117 4 -3 11 -19 15 -35 4 -17 10 -30 15 -30 5 0 11
-14 15 -31 4 -17 13 -42 21 -57 8 -15 14 -33 14 -40 0 -8 6 -28 13 -45 24 -57
39 -101 47 -142 29 -141 34 -186 35 -330 2 -153 3 -163 29 -215 113 -229 146
-273 161 -218 3 13 15 55 26 93 11 39 27 93 34 120 19 65 110 350 141 437 26
74 25 80 -21 153 -27 42 -52 91 -106 210 -5 11 -20 38 -32 60 -28 50 -82 147
-160 290 -33 61 -70 126 -82 145 -12 19 -50 89 -85 155 -34 66 -73 138 -86
160 -12 22 -26 47 -30 55 -4 8 -18 32 -31 52 -13 21 -61 111 -107 200 -164
320 -198 383 -211 398 -7 8 -33 54 -58 102 -26 47 -55 101 -65 120 -10 18 -36
65 -57 103 -50 95 -171 310 -234 418 -28 49 -51 90 -51 91 0 3 -157 282 -230
406 -33 58 -84 137 -113 176 -29 40 -81 114 -117 165 -87 127 -271 309 -380
378 -47 30 -96 61 -110 70 -24 16 -165 79 -240 106 -62 24 -134 43 -185 50
-27 4 -59 12 -70 18 -10 5 -46 13 -80 18 -33 4 -91 12 -130 18 -38 5 -117 15
-175 22 -58 6 -136 15 -175 20 -85 9 -878 9 -990 -1z m730 -422 c50 -32 79
-97 71 -155 -12 -87 -76 -143 -164 -143 -120 0 -196 124 -143 232 30 62 72 88
143 88 43 0 67 -6 93 -22z"/>
<path d="M12935 12549 c-42 -34 -319 -312 -413 -414 -95 -104 -216 -250 -255
-308 -16 -23 -40 -55 -55 -72 -40 -44 -180 -256 -246 -370 -31 -55 -61 -107
-66 -115 -28 -48 -210 -423 -210 -434 0 -2 -10 -26 -22 -53 -35 -77 -68 -164
-148 -388 -16 -44 -40 -107 -53 -141 -13 -33 -27 -77 -31 -98 -4 -21 -12 -46
-17 -55 -13 -23 -109 -338 -119 -391 -4 -25 -18 -81 -30 -125 -25 -88 -54
-212 -76 -320 -26 -125 -55 -279 -64 -330 -4 -27 -15 -74 -24 -104 -9 -30 -16
-67 -16 -81 0 -15 -6 -46 -14 -71 -8 -24 -21 -82 -31 -129 -20 -104 -68 -297
-107 -435 -32 -114 -89 -298 -98 -320 -5 -11 -20 -47 -34 -80 -112 -274 -341
-632 -560 -880 -39 -43 -103 -113 -142 -155 -39 -41 -88 -95 -110 -119 -83
-93 -434 -388 -631 -529 -151 -108 -200 -146 -308 -243 -171 -152 -344 -347
-439 -494 -21 -33 -47 -71 -57 -85 -33 -43 -105 -192 -127 -260 -56 -177 -66
-428 -23 -574 43 -145 142 -313 256 -434 162 -172 359 -300 635 -413 134 -55
424 -150 452 -148 7 0 1 5 -14 11 -16 5 -28 14 -28 19 0 5 -6 9 -12 9 -7 0
-24 6 -38 13 -14 7 -46 21 -72 31 -27 10 -48 22 -48 27 0 5 -5 9 -11 9 -23 0
-139 91 -193 152 -31 35 -71 92 -89 128 -31 63 -32 68 -32 195 0 110 4 140 23
195 38 107 125 262 217 386 75 100 219 277 285 349 69 76 418 479 544 630 33
38 83 97 111 130 47 54 124 153 303 387 100 132 231 348 324 538 87 177 95
194 163 355 21 50 46 108 56 130 10 22 25 65 34 95 10 30 30 91 45 135 30 85
63 213 125 495 14 63 30 142 36 175 6 33 17 87 24 120 33 142 85 456 85 510 0
19 5 46 11 62 6 15 17 73 24 128 7 55 18 132 24 170 7 39 19 115 27 170 9 55
22 134 30 175 7 41 16 98 20 125 3 28 12 73 19 100 7 28 16 73 20 100 3 28 11
65 16 83 6 18 14 65 19 105 6 61 34 215 70 387 13 67 36 156 60 235 12 39 27
95 35 125 27 107 94 320 115 365 12 25 38 99 52 145 5 19 14 39 19 45 5 5 9
16 9 24 0 13 9 34 55 136 7 17 17 41 21 55 16 58 195 425 241 496 18 28 33 54
33 58 0 3 23 43 50 87 28 44 50 83 50 85 0 5 42 66 51 74 3 3 8 12 11 20 7 19
193 263 265 348 29 34 53 67 53 72 0 14 1 14 -55 -31z"/>
<path d="M2916 10273 c-6 -14 -5 -15 5 -6 7 7 10 15 7 18 -3 3 -9 -2 -12 -12z"/>
<path d="M2906 10158 c-7 -107 2 -558 13 -633 4 -27 6 123 3 335 -3 212 -6
386 -7 388 -1 1 -5 -39 -9 -90z"/>
<path d="M2929 9390 c-2 -20 -2 -13 6 -110 28 -353 132 -876 231 -1161 67
-194 171 -470 209 -554 7 -16 34 -84 60 -150 48 -120 127 -286 213 -445 162
-300 258 -454 465 -750 37 -52 110 -159 162 -237 53 -79 97 -143 98 -143 1 0
2 15 2 33 0 24 -12 50 -41 88 -22 30 -58 79 -79 109 -90 128 -119 169 -166
235 -59 82 -122 178 -237 360 -17 28 -52 88 -77 135 -25 47 -69 130 -99 185
-70 128 -206 407 -206 421 0 3 -8 24 -19 47 -21 50 -29 67 -51 127 -20 54 -96
242 -116 288 -8 18 -14 37 -14 43 0 6 -7 25 -15 42 -18 40 -80 231 -90 277 -4
19 -11 40 -16 45 -4 6 -13 42 -19 80 -6 37 -14 73 -17 78 -3 6 -12 37 -19 71
-7 34 -18 81 -24 106 -39 149 -68 287 -75 355 -3 33 -12 96 -20 140 -7 44 -16
120 -20 168 -6 82 -21 153 -26 117z"/>
<path d="M8120 6869 c-32 -9 -154 -31 -240 -45 -19 -3 -41 -7 -47 -9 -16 -5
-17 -25 -2 -25 5 0 7 6 3 13 -6 9 -5 9 8 0 8 -7 17 -10 20 -8 3 3 15 8 27 10
11 3 29 7 39 9 9 2 37 7 62 10 25 3 56 8 70 11 14 3 54 8 90 11 36 2 74 7 85
11 l20 6 -20 8 c-26 10 -71 9 -115 -2z"/>
<path d="M7764 6798 c-3 -4 6 -8 20 -8 14 0 26 4 26 8 0 4 -9 8 -21 8 -11 0
-23 -4 -25 -8z"/>
<path d="M7715 6791 c-3 -2 -13 -5 -23 -6 -9 -1 -52 -5 -94 -9 -77 -7 -109
-12 -160 -22 -15 -3 -49 -7 -75 -9 -62 -5 -164 -16 -183 -20 -8 -1 -42 -6 -75
-9 -70 -8 -85 -10 -270 -36 -328 -46 -756 -121 -905 -160 -19 -5 -69 -16 -110
-25 -165 -36 -399 -98 -485 -127 -215 -73 -441 -169 -429 -181 4 -3 14 -2 23
3 9 5 45 20 81 33 36 14 94 36 130 50 154 60 538 163 905 243 109 24 422 78
625 108 125 19 148 23 220 36 65 13 217 34 350 50 52 6 122 15 155 21 33 6 85
12 115 15 30 2 62 7 70 10 16 7 32 10 93 15 21 2 41 7 43 11 3 5 9 6 14 3 5
-3 11 -2 14 3 5 9 -20 12 -29 3z"/>
<path d="M6320 6510 c0 -5 5 -10 11 -10 5 0 7 5 4 10 -3 6 -8 10 -11 10 -2 0
-4 -4 -4 -10z"/>
<path d="M6570 6506 c0 -8 4 -17 9 -20 5 -4 7 3 4 14 -6 23 -13 26 -13 6z"/>
<path d="M6360 6450 c17 -22 34 -40 37 -40 4 0 -1 8 -10 18 -10 10 -17 22 -17
26 0 9 -26 36 -35 36 -4 0 8 -18 25 -40z"/>
<path d="M5645 6380 c-3 -6 -2 -10 3 -10 5 0 21 -12 36 -27 l27 -27 -11 25
c-14 30 -46 53 -55 39z"/>
<path d="M7000 6340 c0 -5 5 -10 11 -10 5 0 7 5 4 10 -3 6 -8 10 -11 10 -2 0
-4 -4 -4 -10z"/>
<path d="M5722 6318 c2 -6 15 -18 29 -27 l24 -15 -24 27 c-26 29 -35 34 -29
15z"/>
<path d="M5496 6263 c12 -10 44 -36 70 -57 27 -22 54 -45 59 -51 6 -6 26 -21
45 -34 l35 -24 -35 34 c-57 55 -143 125 -170 138 l-25 12 21 -18z"/>
<path d="M5313 6225 c0 -8 5 -15 10 -15 5 0 18 -10 28 -22 11 -11 21 -19 24
-16 3 2 -10 19 -28 37 -23 21 -34 27 -34 16z"/>
<path d="M4080 5920 c6 -11 13 -20 16 -20 2 0 0 9 -6 20 -6 11 -13 20 -16 20
-2 0 0 -9 6 -20z"/>
<path d="M4115 5880 c3 -5 8 -10 11 -10 2 0 4 5 4 10 0 6 -5 10 -11 10 -5 0
-7 -4 -4 -10z"/>
<path d="M4395 5806 c10 -14 19 -26 22 -26 7 0 -17 39 -28 46 -6 3 -3 -5 6
-20z"/>
<path d="M4180 5816 c0 -3 9 -10 20 -16 11 -6 20 -8 20 -6 0 3 -9 10 -20 16
-11 6 -20 8 -20 6z"/>
<path d="M4220 5776 c0 -2 7 -9 15 -16 13 -11 14 -10 9 4 -5 14 -24 23 -24 12z"/>
<path d="M4350 5762 c0 -11 39 -47 44 -41 2 2 -7 14 -20 27 -13 12 -24 19 -24
14z"/>
<path d="M4426 5755 c4 -8 10 -15 16 -15 5 0 7 -3 5 -7 -3 -5 15 -30 40 -58
l45 -50 -49 72 c-44 68 -70 94 -57 58z"/>
<path d="M5180 5752 c0 -4 10 -13 23 -21 22 -14 22 -14 3 8 -20 22 -26 25 -26
13z"/>
<path d="M4260 5736 c0 -2 8 -10 18 -17 15 -13 16 -12 3 4 -13 16 -21 21 -21
13z"/>
<path d="M4391 5593 c7 -12 15 -20 18 -17 3 2 -3 12 -13 22 -17 16 -18 16 -5
-5z"/>
<path d="M8510 5481 c0 -7 -5 -9 -12 -5 -7 5 -8 3 -3 -5 5 -9 10 -10 18 -2 6
6 8 14 4 18 -4 3 -7 1 -7 -6z"/>
<path d="M5130 5438 c25 -24 38 -29 25 -9 -3 6 -16 16 -28 22 -20 11 -20 9 3
-13z"/>
<path d="M8273 5352 c-17 -2 -37 -10 -43 -18 -7 -8 -18 -14 -25 -14 -7 0 -18
-6 -24 -14 -10 -12 -6 -12 22 -2 19 6 42 17 50 25 14 11 27 8 83 -14 36 -14
68 -25 70 -23 2 2 -18 15 -44 28 -26 14 -49 27 -52 30 -3 3 -19 4 -37 2z"/>
<path d="M4580 5333 c0 -6 8 -17 18 -24 16 -13 16 -13 2 6 -8 11 -16 22 -17
24 -2 2 -3 0 -3 -6z"/>
<path d="M4872 4908 c-14 -14 -16 -28 -3 -28 9 0 24 30 18 36 -2 2 -9 -2 -15
-8z"/>
<path d="M7455 4850 c-3 -5 -1 -10 4 -10 6 0 11 5 11 10 0 6 -2 10 -4 10 -3 0
-8 -4 -11 -10z"/>
<path d="M7510 4676 c0 -2 8 -10 18 -17 15 -13 16 -12 3 4 -13 16 -21 21 -21
13z"/>
<path d="M7550 4636 c0 -2 7 -6 15 -10 8 -3 15 -1 15 4 0 6 -7 10 -15 10 -8 0
-15 -2 -15 -4z"/>
<path d="M13010 3845 c-14 -8 -19 -14 -10 -14 8 0 24 6 34 14 25 19 9 19 -24
0z"/>
<path d="M12945 3820 c-8 -13 5 -13 25 0 13 8 13 10 -2 10 -9 0 -20 -4 -23
-10z"/>
<path d="M12850 3780 c-9 -6 -10 -10 -3 -10 6 0 15 5 18 10 8 12 4 12 -15 0z"/>
<path d="M12751 3743 c-19 -9 -28 -19 -22 -21 7 -2 18 1 24 7 6 6 19 11 28 11
10 0 21 5 24 10 9 15 -16 12 -54 -7z"/>
<path d="M12670 3710 c0 -13 11 -13 30 0 12 8 11 10 -7 10 -13 0 -23 -4 -23
-10z"/>
<path d="M12592 3689 c-18 -5 -30 -14 -27 -18 6 -11 75 9 75 21 0 10 -5 9 -48
-3z"/>
<path d="M12525 3665 c-5 -2 -22 -6 -37 -9 -16 -4 -28 -11 -28 -17 0 -7 9 -9
23 -5 12 4 28 8 35 10 15 3 40 26 27 25 -6 0 -14 -2 -20 -4z"/>
<path d="M12383 3619 c-18 -5 -33 -12 -33 -15 0 -9 73 6 85 17 11 11 -9 11
-52 -2z"/>
<path d="M12292 3590 c-18 -4 -36 -11 -40 -15 -10 -11 71 5 83 16 10 10 4 10
-43 -1z"/>
<path d="M12165 3550 c-3 -5 1 -10 9 -10 8 0 18 5 21 10 3 6 -1 10 -9 10 -8 0
-18 -4 -21 -10z"/>
<path d="M12038 3513 c6 -2 18 -2 25 0 6 3 1 5 -13 5 -14 0 -19 -2 -12 -5z"/>
<path d="M11528 3393 c7 -3 16 -2 19 1 4 3 -2 6 -13 5 -11 0 -14 -3 -6 -6z"/>
<path d="M11369 3376 c-4 -4 -21 -6 -119 -20 -19 -3 -94 -7 -167 -10 -72 -3
-143 -10 -158 -16 -15 -6 -178 -13 -368 -16 -188 -4 -344 -8 -346 -11 -3 -2
128 -3 290 -2 265 2 598 17 704 33 22 4 54 8 70 11 17 3 55 8 85 11 77 9 108
23 54 23 -22 1 -43 -1 -45 -3z"/>
<path d="M9875 3320 c19 -8 123 -14 114 -6 -2 2 -33 6 -69 9 -38 3 -57 1 -45
-3z"/>
<path d="M9040 3076 c0 -2 8 -10 18 -17 15 -13 16 -12 3 4 -13 16 -21 21 -21
13z"/>
</g>
</svg>
