<?xml version="1.0" standalone="no"?>
<!DOCTYPE svg PUBLIC "-//W3C//DTD SVG 20010904//EN"
 "http://www.w3.org/TR/2001/REC-SVG-20010904/DTD/svg10.dtd">
<svg version="1.0" xmlns="http://www.w3.org/2000/svg"
 width="2000.000000pt" height="2000.000000pt" viewBox="0 0 2000.000000 2000.000000"
 preserveAspectRatio="xMidYMid meet">

<g transform="translate(0.000000,2000.000000) scale(0.100000,-0.100000)"
fill="#D4AF37" stroke="none">
<path d="M8170 16014 c-298 -27 -582 -76 -700 -121 -8 -3 17 -13 55 -23 163
-41 283 -108 400 -225 167 -166 272 -316 452 -645 29 -51 45 -81 139 -257 20
-38 71 -129 114 -203 72 -126 188 -341 285 -525 23 -44 63 -118 89 -164 25
-46 46 -85 46 -87 0 -2 32 -61 71 -131 39 -69 86 -154 104 -187 59 -110 98
-181 105 -191 25 -33 228 -418 250 -475 26 -64 54 -276 44 -335 -19 -126 -39
-196 -81 -279 -36 -72 -62 -106 -132 -176 -47 -47 -122 -110 -165 -140 -44
-30 -81 -61 -84 -67 -5 -16 49 -18 64 -3 9 9 107 35 179 47 17 2 49 13 72 24
24 10 46 19 51 19 34 0 304 126 394 184 209 135 409 430 457 676 6 30 15 79
21 108 19 100 11 214 -27 382 -22 101 -28 122 -52 175 -74 166 -139 269 -238
376 -63 68 -210 189 -230 189 -7 0 -13 5 -13 10 0 6 -5 10 -12 10 -6 0 29 -42
79 -92 130 -135 201 -244 302 -471 31 -70 59 -183 47 -194 -11 -11 -148 19
-266 59 -205 70 -332 151 -442 282 -87 104 -129 199 -188 431 -33 129 -88 256
-139 319 -17 21 -31 44 -31 51 0 28 83 35 232 20 186 -20 277 -39 420 -86 178
-59 259 -107 377 -222 59 -57 85 -92 118 -157 78 -156 113 -293 113 -435 -1
-75 2 -86 42 -167 24 -48 48 -87 54 -88 5 0 16 24 23 53 8 28 38 126 67 216
l54 165 -29 45 c-16 25 -42 73 -59 106 -16 33 -53 103 -82 155 -29 52 -83 151
-120 220 -37 69 -78 143 -90 165 -13 22 -52 96 -88 165 -35 69 -81 154 -102
190 -20 36 -54 97 -75 135 -67 124 -97 179 -135 245 -56 98 -89 157 -133 240
-66 123 -206 320 -281 396 -157 156 -320 225 -636 270 -101 14 -589 27 -690
18z m711 -326 c54 -30 84 -93 75 -156 -20 -152 -207 -195 -299 -70 -11 14 -22
49 -25 76 -5 60 24 121 73 152 42 28 125 27 176 -2z"/>
<path d="M11706 14915 c-207 -213 -310 -341 -434 -540 -43 -69 -163 -319 -202
-418 -56 -145 -101 -271 -130 -367 -13 -41 -29 -93 -36 -115 -16 -51 -78 -310
-94 -390 -114 -580 -188 -824 -315 -1040 -48 -81 -143 -215 -203 -285 -110
-128 -301 -309 -438 -414 -76 -58 -172 -132 -213 -164 -86 -66 -154 -131 -194
-185 -16 -20 -38 -47 -51 -60 -74 -74 -162 -239 -181 -342 -28 -146 -13 -266
45 -365 17 -28 30 -55 30 -59 0 -15 139 -158 188 -195 65 -47 139 -87 262
-139 113 -48 219 -82 228 -73 7 7 11 4 -68 45 -88 45 -125 74 -165 129 -112
153 -43 356 224 660 42 48 117 134 166 192 49 58 94 110 100 116 21 22 185
221 251 304 153 194 295 454 393 723 55 148 150 565 181 792 6 44 15 107 20
140 6 33 14 89 20 125 5 36 14 94 20 130 6 36 15 88 19 115 5 28 15 84 23 125
9 41 21 107 27 145 31 181 42 227 95 412 37 129 102 314 142 401 13 29 24 56
24 60 0 16 140 284 179 342 9 14 23 37 30 51 7 15 51 77 97 139 47 62 83 115
80 117 -3 3 -57 -48 -120 -112z"/>
<path d="M6063 13585 c0 -22 2 -30 4 -17 2 12 2 30 0 40 -3 9 -5 -1 -4 -23z"/>
<path d="M6063 13500 c0 -25 2 -35 4 -22 2 12 2 32 0 45 -2 12 -4 2 -4 -23z"/>
<path d="M6062 13350 c0 -19 2 -27 5 -17 2 9 2 25 0 35 -3 9 -5 1 -5 -18z"/>
<path d="M6078 13173 c-11 -22 13 -248 28 -262 8 -8 4 68 -5 93 -6 13 -11 59
-12 100 -2 73 -4 85 -11 69z"/>
<path d="M6120 12828 c5 -24 11 -63 14 -88 12 -107 89 -350 109 -350 5 0 7 6
4 13 -2 6 -16 57 -31 112 -15 55 -40 146 -56 202 -17 56 -30 114 -30 128 0 14
-4 25 -9 25 -5 0 -5 -19 -1 -42z"/>
<path d="M6251 12370 c-1 -31 29 -123 63 -194 19 -41 38 -87 42 -102 4 -16 15
-45 25 -64 10 -19 37 -75 60 -125 23 -49 56 -112 74 -140 18 -27 52 -84 76
-125 43 -74 59 -99 169 -254 30 -43 59 -86 65 -95 30 -50 58 -81 71 -81 12 0
11 7 -7 33 -13 17 -29 38 -36 45 -7 7 -20 26 -30 42 -9 17 -21 30 -25 30 -4 0
-8 6 -8 13 0 7 -8 22 -18 33 -53 57 -192 285 -286 469 -17 33 -34 62 -38 63
-5 2 -8 12 -8 23 0 10 -4 19 -10 19 -5 0 -10 6 -10 13 0 8 -6 27 -14 43 -27
57 -45 100 -69 164 -14 36 -36 90 -50 120 -14 30 -28 62 -30 70 -5 13 -5 13
-6 0z"/>
<path d="M9076 11757 c-16 -12 -16 -13 7 -13 16 0 23 4 20 13 -3 7 -6 13 -7
13 -1 0 -10 -6 -20 -13z"/>
<path d="M8315 11649 c-16 -5 -48 -11 -70 -13 -79 -8 -136 -19 -141 -28 -3 -5
9 -6 28 -2 18 3 42 7 53 9 32 4 108 16 130 20 11 2 31 4 45 4 20 1 22 3 10 11
-17 11 -15 11 -55 -1z"/>
<path d="M8046 11601 c-3 -4 6 -6 19 -3 14 2 25 6 25 8 0 8 -39 4 -44 -5z"/>
<path d="M7596 11512 c-2 -4 -22 -9 -42 -10 -45 -3 -54 -9 -30 -18 20 -7 124
15 132 28 3 4 -8 8 -25 8 -16 0 -32 -4 -35 -8z"/>
<path d="M7458 11468 c8 -8 17 -8 34 0 22 10 21 11 -11 11 -27 1 -32 -2 -23
-11z"/>
<path d="M7413 11453 c9 -2 23 -2 30 0 6 3 -1 5 -18 5 -16 0 -22 -2 -12 -5z"/>
<path d="M7346 11431 c-4 -5 1 -8 9 -7 21 3 31 16 12 16 -9 0 -18 -4 -21 -9z"/>
<path d="M7308 11413 c7 -3 16 -2 19 1 4 3 -2 6 -13 5 -11 0 -14 -3 -6 -6z"/>
<path d="M11138 9793 c7 -3 16 -2 19 1 4 3 -2 6 -13 5 -11 0 -14 -3 -6 -6z"/>
<path d="M11038 9773 c12 -2 30 -2 40 0 9 3 -1 5 -23 4 -22 0 -30 -2 -17 -4z"/>
<path d="M10958 9753 c7 -3 16 -2 19 1 4 3 -2 6 -13 5 -11 0 -14 -3 -6 -6z"/>
<path d="M10808 9733 c12 -2 30 -2 40 0 9 3 -1 5 -23 4 -22 0 -30 -2 -17 -4z"/>
<path d="M10078 9713 c12 -2 30 -2 40 0 9 3 -1 5 -23 4 -22 0 -30 -2 -17 -4z"/>
<path d="M10638 9713 c7 -3 16 -2 19 1 4 3 -2 6 -13 5 -11 0 -14 -3 -6 -6z"/>
<path d="M3159 9126 c-16 -34 -8 -42 73 -70 34 -11 89 -38 120 -59 80 -54 204
-189 262 -286 26 -45 64 -103 83 -128 34 -45 48 -66 106 -173 37 -66 129 -223
201 -340 29 -47 69 -112 88 -145 19 -33 93 -159 165 -280 71 -121 157 -267
190 -325 l60 -105 -7 -565 c-8 -601 -12 -648 -59 -724 -49 -79 -133 -126 -253
-142 -46 -7 -48 -8 -48 -40 l0 -34 679 0 679 0 5 22 c9 33 -7 45 -81 58 -181
35 -244 106 -276 320 -3 19 -6 279 -7 578 l-2 542 103 173 c57 94 124 206 150
247 98 155 373 596 391 627 10 17 38 62 62 100 24 37 72 113 107 168 201 322
329 453 494 505 75 24 77 25 74 55 l-3 30 -445 3 c-409 2 -446 1 -457 -15 -25
-33 -16 -51 30 -58 108 -17 174 -54 214 -123 57 -96 25 -223 -110 -445 -167
-274 -216 -355 -271 -442 -31 -49 -75 -123 -99 -164 -23 -40 -90 -147 -149
-237 -60 -91 -115 -178 -123 -194 -25 -48 -30 -42 -161 179 -25 42 -252 416
-312 515 -23 37 -42 70 -42 73 0 2 -18 31 -40 63 -22 32 -40 61 -40 63 0 3
-36 65 -81 138 -107 177 -127 217 -149 303 -40 159 19 237 213 280 20 5 27 12
27 31 0 13 -5 27 -11 30 -5 4 -309 9 -674 12 l-664 6 -12 -27z"/>
<path d="M9293 8733 c-7 -2 -13 -14 -13 -26 -1 -61 -101 -270 -175 -365 -55
-71 -166 -168 -239 -208 -78 -43 -274 -104 -336 -104 -32 0 -45 -24 -38 -71 3
-24 6 -24 153 -32 83 -5 154 -12 158 -16 4 -4 8 -364 7 -800 0 -814 0 -820 41
-993 50 -213 181 -358 393 -433 135 -48 248 -60 381 -41 269 40 415 138 543
366 32 57 32 69 -5 89 -39 20 -61 13 -87 -26 -38 -59 -116 -130 -171 -154 -74
-32 -238 -32 -312 0 -90 40 -166 144 -192 264 -10 44 -18 1723 -9 1732 3 3
144 6 314 7 170 1 317 3 327 6 15 4 17 13 15 56 l-3 51 -320 3 c-175 1 -323 6
-327 10 -4 4 -8 157 -8 340 -1 182 -4 333 -8 335 -14 8 -77 15 -89 10z"/>
<path d="M6820 8091 c-77 -12 -237 -57 -319 -91 -77 -31 -163 -87 -228 -146
-96 -88 -157 -249 -136 -362 32 -172 154 -282 312 -282 71 0 114 14 168 54 60
44 84 92 84 167 1 53 -4 69 -35 118 -96 155 -106 206 -56 284 44 70 116 111
255 147 60 15 235 12 302 -5 223 -58 353 -227 353 -458 0 -104 -55 -196 -165
-277 -106 -78 -241 -132 -574 -230 -250 -73 -377 -122 -471 -182 -148 -95
-235 -192 -291 -326 -28 -66 -33 -92 -37 -186 -7 -158 21 -259 106 -383 118
-171 319 -273 575 -290 162 -10 352 30 487 104 133 73 200 127 333 272 54 59
77 69 77 34 0 -34 44 -140 81 -194 102 -150 248 -219 434 -205 106 8 168 27
243 76 72 46 154 128 150 149 -2 9 -15 22 -30 30 -26 15 -29 14 -55 -10 -52
-48 -86 -63 -140 -63 -46 -1 -57 3 -84 30 -57 57 -59 78 -59 795 0 664 -5 761
-43 904 -51 187 -213 349 -437 439 -180 72 -267 87 -520 91 -124 2 -250 0
-280 -4z m713 -1056 c3 -127 2 -336 -2 -465 l-7 -235 -32 -67 c-37 -82 -127
-203 -190 -258 -91 -79 -229 -130 -350 -130 -115 0 -243 55 -295 125 -72 99
-100 186 -99 310 0 159 41 261 152 378 80 86 133 122 330 227 281 150 372 214
463 329 10 13 20 21 22 19 2 -2 6 -107 8 -233z"/>
<path d="M11175 8083 c-68 -9 -243 -57 -314 -86 -177 -71 -295 -167 -358 -290
-35 -69 -37 -77 -37 -172 0 -86 3 -107 25 -155 27 -57 92 -125 150 -156 26
-14 58 -18 129 -18 85 -1 100 2 140 26 82 48 120 109 120 192 0 53 -11 81 -63
159 -75 113 -83 187 -27 251 44 49 100 84 181 113 65 23 91 26 214 27 122 1
149 -2 210 -23 94 -31 145 -62 192 -115 51 -57 78 -112 104 -211 43 -165 0
-274 -156 -395 -78 -60 -205 -113 -455 -190 -284 -87 -394 -126 -495 -175
-291 -143 -425 -329 -425 -592 0 -168 57 -308 175 -428 95 -97 220 -165 365
-201 128 -31 387 -12 514 37 189 74 305 160 462 341 22 25 45 43 51 40 5 -4
13 -22 17 -41 22 -115 93 -229 184 -296 73 -54 143 -77 252 -82 117 -7 235 20
318 70 54 32 172 140 172 157 0 13 -42 50 -56 50 -7 0 -22 -13 -33 -29 -25
-35 -99 -71 -146 -71 -76 0 -114 39 -142 142 -15 56 -17 131 -16 648 0 635 -6
798 -32 903 -62 247 -204 395 -466 489 -169 60 -333 86 -549 85 -96 0 -188 -2
-205 -4z m685 -1271 c0 -344 -3 -448 -14 -490 -41 -153 -184 -332 -319 -400
-94 -47 -234 -71 -318 -53 -132 27 -213 89 -272 208 -51 102 -61 150 -54 256
8 119 33 198 91 285 83 126 179 198 426 322 211 106 288 156 375 244 38 40 73
70 78 68 4 -2 7 -200 7 -440z"/>
<path d="M13425 8045 c-76 -34 -250 -93 -485 -167 -97 -30 -105 -35 -105 -58
0 -23 4 -25 60 -31 89 -8 150 -46 193 -119 l27 -45 0 -820 c0 -910 2 -875 -67
-959 -33 -41 -116 -86 -158 -86 -38 0 -52 -14 -48 -46 l3 -29 571 -3 c613 -2
605 -3 590 46 -5 15 -20 21 -63 27 -148 18 -237 100 -257 238 -4 26 -7 341 -7
700 0 707 -1 694 56 823 43 98 113 155 211 173 80 15 162 -19 269 -114 57 -50
95 -65 165 -65 72 0 118 19 168 68 96 97 107 258 23 369 -49 64 -153 118 -248
127 -127 12 -286 -46 -396 -144 -87 -78 -192 -224 -266 -370 -14 -26 -26 -12
-33 37 -19 138 -29 204 -38 263 -6 36 -13 92 -17 125 -11 109 -24 114 -148 60z"/>
<path d="M15546 8058 c-85 -8 -196 -32 -301 -65 -204 -64 -351 -177 -430 -330
-27 -52 -29 -67 -29 -153 0 -82 4 -102 27 -150 33 -68 84 -121 142 -149 63
-29 193 -30 262 0 125 53 167 168 104 289 -16 30 -43 82 -60 115 -71 139 -16
239 174 315 54 22 75 24 215 25 138 0 162 -3 220 -24 192 -70 300 -225 302
-436 2 -97 -5 -119 -65 -203 -32 -44 -106 -106 -167 -139 -41 -23 -178 -76
-235 -93 -22 -6 -49 -15 -60 -20 -11 -4 -38 -13 -60 -19 -22 -6 -80 -22 -130
-37 -49 -14 -113 -32 -141 -39 -28 -8 -99 -32 -158 -54 -341 -128 -524 -350
-526 -635 0 -92 26 -195 74 -290 100 -198 385 -356 641 -356 172 1 292 28 443
102 110 53 185 111 309 237 66 68 104 100 106 90 17 -59 43 -133 65 -179 34
-71 132 -169 208 -206 57 -28 64 -29 199 -28 199 1 273 29 403 148 59 54 68
73 46 97 -24 26 -41 24 -69 -9 -39 -46 -109 -75 -168 -69 -42 4 -56 10 -78 37
-51 61 -52 67 -59 805 -7 661 -13 784 -41 875 -40 133 -78 198 -165 285 -127
127 -292 205 -518 245 -121 21 -358 30 -480 18z m650 -1330 c-2 -368 -3 -385
-24 -438 -63 -160 -201 -328 -313 -382 -74 -36 -192 -68 -249 -68 -56 0 -131
20 -188 49 -50 26 -132 103 -155 146 -76 149 -77 353 -1 499 32 62 98 149 127
169 12 8 31 23 42 34 44 41 128 92 305 181 235 119 340 194 430 308 14 17 16
13 22 -48 3 -37 5 -240 4 -450z"/>
<path d="M10707 4973 c-3 -21 -4 -310 -4 -643 l2 -605 68 -3 67 -3 0 646 0
645 -64 0 -64 0 -5 -37z"/>
<path d="M7283 4940 c-101 -27 -169 -57 -239 -106 -109 -76 -171 -150 -223
-267 -36 -81 -44 -128 -42 -247 3 -176 57 -307 176 -425 82 -83 137 -116 260
-157 81 -28 103 -31 220 -32 135 -1 196 9 295 47 69 26 161 87 184 122 18 27
18 27 -15 61 -40 41 -52 42 -93 8 -34 -29 -122 -73 -201 -99 -59 -21 -209 -23
-286 -5 -97 22 -177 68 -250 140 -107 107 -142 192 -143 345 -2 212 92 357
299 463 64 32 189 55 266 47 122 -11 200 -39 302 -108 63 -42 56 -42 114 7 32
27 29 40 -19 79 -59 47 -125 84 -205 114 -95 35 -293 42 -400 13z"/>
<path d="M8625 4628 c-27 -4 -70 -15 -95 -24 -54 -20 -156 -87 -188 -123 -64
-73 -112 -209 -112 -318 0 -59 22 -149 51 -205 119 -234 429 -319 695 -192 28
14 65 39 82 57 l31 32 -35 42 -35 42 -48 -34 c-90 -65 -134 -79 -251 -79 -98
0 -110 2 -171 32 -98 47 -164 133 -171 223 l-3 34 383 3 382 2 0 73 c0 189
-104 337 -290 412 -55 22 -158 33 -225 23z m209 -138 c88 -42 156 -132 171
-228 l7 -43 -309 4 c-169 1 -314 6 -321 10 -14 10 -9 40 21 110 25 61 109 138
173 160 70 24 193 18 258 -13z"/>
<path d="M9405 4618 c-3 -8 32 -92 78 -188 46 -96 101 -211 122 -255 20 -44
54 -116 75 -160 73 -152 130 -284 130 -299 0 -15 -45 -96 -81 -147 -10 -15
-40 -37 -66 -49 -60 -28 -153 -24 -209 9 -45 27 -56 23 -78 -24 -22 -46 -18
-57 36 -82 76 -35 157 -47 224 -32 163 35 217 101 370 449 50 116 78 177 195
429 56 119 108 234 117 256 8 22 22 50 30 63 8 12 13 25 10 27 -2 3 -30 6 -62
7 -44 2 -61 -1 -67 -12 -18 -31 -162 -336 -181 -385 -11 -27 -49 -108 -84
-178 -35 -71 -64 -135 -64 -143 0 -8 -6 -14 -12 -14 -15 0 -57 82 -138 265
-109 247 -207 452 -218 458 -4 3 -33 8 -65 11 -44 6 -58 4 -62 -6z"/>
<path d="M11608 4615 c-159 -44 -276 -144 -333 -285 -23 -57 -33 -240 -16
-296 51 -165 212 -300 386 -325 248 -35 468 91 540 310 23 69 23 205 1 289
-38 147 -162 263 -331 308 -61 17 -184 16 -247 -1z m247 -122 c71 -23 164
-118 193 -196 29 -76 29 -176 1 -260 -69 -206 -354 -286 -534 -149 -99 75
-148 219 -121 351 18 87 36 122 92 178 95 94 228 122 369 76z"/>
<path d="M12936 4605 c-67 -27 -166 -90 -166 -106 0 -5 -4 -7 -10 -4 -5 3 -10
28 -10 54 0 62 -14 73 -82 69 l-53 -3 -3 -444 c-1 -276 1 -447 7 -450 5 -4 36
-4 68 -1 l58 5 5 285 c4 256 7 289 24 325 34 69 77 114 139 145 52 26 71 30
142 30 140 0 215 -41 264 -145 21 -45 22 -60 24 -344 l2 -296 68 -3 67 -3 1
258 c1 358 1 361 -23 430 -51 147 -179 223 -378 223 -67 0 -98 -6 -144 -25z"/>
</g>
</svg>
