<svg xmlns="http://www.w3.org/2000/svg" width="1600" height="900" viewBox="0 0 1600 900">
  <defs>
    <linearGradient id="sky" x1="0" y1="0" x2="0" y2="1">
      <stop offset="0%" stop-color="#1D3D3F"/>
      <stop offset="100%" stop-color="#2D6F75"/>
    </linearGradient>
    <linearGradient id="road" x1="0" y1="0" x2="0" y2="1">
      <stop offset="0%" stop-color="#34393D"/>
      <stop offset="100%" stop-color="#1C2126"/>
    </linearGradient>
    <linearGradient id="body" x1="0" y1="0" x2="1" y2="1">
      <stop offset="0%" stop-color="#132528"/>
      <stop offset="100%" stop-color="#2D4B50"/>
    </linearGradient>
    <radialGradient id="sun" cx="82%" cy="15%" r="40%">
      <stop offset="0%" stop-color="#F7D48E" stop-opacity="0.72"/>
      <stop offset="100%" stop-color="#F7D48E" stop-opacity="0"/>
    </radialGradient>
  </defs>
  <rect width="1600" height="900" fill="url(#sky)"/>
  <rect width="1600" height="900" fill="url(#sun)"/>
  <path d="M0 560C280 500 560 490 840 505C1125 520 1370 560 1600 625V900H0Z" fill="url(#road)"/>
  <path d="M260 650L1430 650" stroke="#DAB16D" stroke-width="8" stroke-opacity="0.55" stroke-dasharray="41 28"/>

  <g transform="translate(205 260)">
    <path d="M80 305C102 228 195 162 350 148H915C980 148 1065 200 1125 263L1235 282C1268 287 1290 316 1290 350V406H20V351C20 323 47 309 80 305Z" fill="url(#body)"/>
    <path d="M370 162H920C980 162 1030 205 1075 260H310C326 205 344 182 370 162Z" fill="#6E8F92" fill-opacity="0.64"/>
    <circle cx="295" cy="407" r="88" fill="#122125"/>
    <circle cx="990" cy="407" r="88" fill="#122125"/>
    <circle cx="295" cy="407" r="35" fill="#DAB16D"/>
    <circle cx="990" cy="407" r="35" fill="#DAB16D"/>
    <ellipse cx="665" cy="434" rx="638" ry="45" fill="#000" fill-opacity="0.35"/>
  </g>
</svg>
