<svg xmlns="http://www.w3.org/2000/svg" width="1600" height="900" viewBox="0 0 1600 900">
  <defs>
    <linearGradient id="sky" x1="0" y1="0" x2="0" y2="1">
      <stop offset="0%" stop-color="#1E2D52"/>
      <stop offset="100%" stop-color="#3D5E93"/>
    </linearGradient>
    <linearGradient id="road" x1="0" y1="0" x2="0" y2="1">
      <stop offset="0%" stop-color="#30363F"/>
      <stop offset="100%" stop-color="#1C222A"/>
    </linearGradient>
    <linearGradient id="body" x1="0" y1="0" x2="1" y2="1">
      <stop offset="0%" stop-color="#111A2B"/>
      <stop offset="100%" stop-color="#3A4B66"/>
    </linearGradient>
    <radialGradient id="sun" cx="84%" cy="17%" r="38%">
      <stop offset="0%" stop-color="#FFD98F" stop-opacity="0.72"/>
      <stop offset="100%" stop-color="#FFD98F" stop-opacity="0"/>
    </radialGradient>
  </defs>
  <rect width="1600" height="900" fill="url(#sky)"/>
  <rect width="1600" height="900" fill="url(#sun)"/>
  <path d="M0 560C290 485 560 470 820 485C1120 505 1360 550 1600 620V900H0Z" fill="url(#road)"/>
  <path d="M260 640L1440 640" stroke="#D8B06D" stroke-width="8" stroke-opacity="0.55" stroke-dasharray="44 30"/>

  <g transform="translate(220 280)">
    <path d="M80 290C98 220 180 165 320 148H770C850 148 940 198 1000 250L1120 268C1152 272 1180 303 1180 338V390H20V338C20 307 48 295 80 290Z" fill="url(#body)"/>
    <path d="M365 160H810C872 160 915 204 950 250H305C320 202 338 178 365 160Z" fill="#7B90AE" fill-opacity="0.62"/>
    <circle cx="260" cy="392" r="90" fill="#121A28"/>
    <circle cx="930" cy="392" r="90" fill="#121A28"/>
    <circle cx="260" cy="392" r="36" fill="#D8B06D"/>
    <circle cx="930" cy="392" r="36" fill="#D8B06D"/>
    <ellipse cx="615" cy="418" rx="595" ry="44" fill="#000" fill-opacity="0.34"/>
  </g>
</svg>
