<svg xmlns="http://www.w3.org/2000/svg" width="1600" height="900" viewBox="0 0 1600 900">
  <defs>
    <linearGradient id="sky" x1="0" y1="0" x2="0" y2="1">
      <stop offset="0%" stop-color="#1B3340"/>
      <stop offset="100%" stop-color="#355D73"/>
    </linearGradient>
    <linearGradient id="road" x1="0" y1="0" x2="0" y2="1">
      <stop offset="0%" stop-color="#303740"/>
      <stop offset="100%" stop-color="#1C2128"/>
    </linearGradient>
    <linearGradient id="body" x1="0" y1="0" x2="1" y2="1">
      <stop offset="0%" stop-color="#12222B"/>
      <stop offset="100%" stop-color="#2E4F63"/>
    </linearGradient>
    <radialGradient id="sun" cx="83%" cy="15%" r="40%">
      <stop offset="0%" stop-color="#F7D38A" stop-opacity="0.72"/>
      <stop offset="100%" stop-color="#F7D38A" stop-opacity="0"/>
    </radialGradient>
  </defs>
  <rect width="1600" height="900" fill="url(#sky)"/>
  <rect width="1600" height="900" fill="url(#sun)"/>
  <path d="M0 562C280 500 560 492 840 505C1130 520 1370 560 1600 625V900H0Z" fill="url(#road)"/>
  <path d="M260 656L1430 656" stroke="#DEB976" stroke-width="8" stroke-opacity="0.55" stroke-dasharray="42 29"/>

  <g transform="translate(220 280)">
    <path d="M80 295C95 220 182 165 320 148H790C865 148 958 197 1018 255L1130 272C1165 277 1190 306 1190 342V394H20V342C20 308 45 299 80 295Z" fill="url(#body)"/>
    <path d="M370 163H820C885 163 930 206 967 254H305C322 205 340 182 370 163Z" fill="#6E8EA1" fill-opacity="0.62"/>
    <circle cx="260" cy="395" r="92" fill="#102029"/>
    <circle cx="940" cy="395" r="92" fill="#102029"/>
    <circle cx="260" cy="395" r="36" fill="#DEB976"/>
    <circle cx="940" cy="395" r="36" fill="#DEB976"/>
    <ellipse cx="620" cy="423" rx="600" ry="45" fill="#000" fill-opacity="0.35"/>
  </g>
</svg>
